<?xml version="1.0" encoding="utf-8"?>
<!-- Generator: Adobe Illustrator 27.5.0, SVG Export Plug-In . SVG Version: 6.00 Build 0)  -->
<svg version="1.1" xmlns="http://www.w3.org/2000/svg" xmlns:xlink="http://www.w3.org/1999/xlink" x="0px" y="0px"
	 viewBox="0 0 500 500" style="enable-background:new 0 0 500 500;" xml:space="preserve">
<g id="Background_complete">
	<rect style="fill:#FFFFFF;" width="500" height="500"/>
	<g>
		<g>
			<g>
				<rect x="256.318" y="132.044" style="fill:#EBEBEB;" width="85.871" height="4.917"/>
			</g>
			<g>
				<polygon style="fill:#EBEBEB;" points="320.744,137.021 323.761,143.644 327.316,143.644 329.902,137.021 				"/>
			</g>
			<g>
				<polygon style="fill:#EBEBEB;" points="271.07,137.021 274.087,143.644 277.643,143.644 280.229,137.021 				"/>
			</g>
		</g>
		<g>
			<g>
				
					<rect x="281.031" y="155.555" transform="matrix(-1.836970e-16 1 -1 -1.836970e-16 593.2944 -191.3095)" style="fill:#E0E0E0;" width="222.541" height="90.875"/>
			</g>
			<g>
				<rect x="351.854" y="94.711" style="fill:#F0F0F0;" width="80.896" height="212.563"/>
			</g>
			<g>
				<rect x="390.673" y="89.722" style="fill:#E0E0E0;" width="6.021" height="222.541"/>
			</g>
		</g>
		<g>
			<g>
				
					<rect x="70.268" y="155.555" transform="matrix(-1.836970e-16 1 -1 -1.836970e-16 382.5315 19.4534)" style="fill:#E0E0E0;" width="222.541" height="90.875"/>
			</g>
			<g>
				<rect x="141.091" y="94.711" style="fill:#F0F0F0;" width="80.896" height="212.563"/>
			</g>
			<g>
				<rect x="179.91" y="89.722" style="fill:#E0E0E0;" width="6.022" height="222.541"/>
			</g>
		</g>
		<g>
			<g>
				<path style="fill:#E0E0E0;" d="M443.92,351.803H263.174c-3.232,0-5.862-2.63-5.862-5.862V82.667c0-3.232,2.63-5.862,5.862-5.862
					H443.92c3.232,0,5.862,2.629,5.862,5.862V345.94C449.783,349.173,447.153,351.803,443.92,351.803z M263.174,77.055
					c-3.095,0-5.612,2.518-5.612,5.612V345.94c0,3.095,2.518,5.612,5.612,5.612H443.92c3.095,0,5.612-2.518,5.612-5.612V82.667
					c0-3.094-2.518-5.612-5.612-5.612H263.174z"/>
			</g>
			<g>
				<path style="fill:#E0E0E0;" d="M235.493,351.803H54.746c-3.232,0-5.862-2.63-5.862-5.862V82.667
					c0-3.232,2.629-5.862,5.862-5.862h180.747c3.232,0,5.862,2.629,5.862,5.862V345.94
					C241.355,349.173,238.725,351.803,235.493,351.803z M54.746,77.055c-3.094,0-5.612,2.518-5.612,5.612V345.94
					c0,3.095,2.518,5.612,5.612,5.612h180.747c3.095,0,5.612-2.518,5.612-5.612V82.667c0-3.094-2.518-5.612-5.612-5.612H54.746z"/>
			</g>
		</g>
		<g>
			<g>
				<polygon style="fill:#E6E6E6;" points="329.902,119.116 326.214,131.989 316.283,131.989 312.594,119.116 				"/>
			</g>
			<g>
				<g>
					<g>
						<path style="fill:#E0E0E0;" d="M321.467,111.15c0,0-9.037-4.247-9.089-11.461C312.379,99.689,320.952,103.073,321.467,111.15z
							"/>
					</g>
				</g>
				<g>
					<g>
						<path style="fill:#E0E0E0;" d="M321.248,116.448c0,0,9.225-3.821,9.614-11.025
							C330.862,105.423,322.14,108.404,321.248,116.448z"/>
					</g>
				</g>
				<g>
					<g>
						<path style="fill:#E0E0E0;" d="M319.601,103.518c0,0,8.295-5.559,7.26-12.699C326.861,90.819,318.894,95.455,319.601,103.518z
							"/>
					</g>
				</g>
				<g>
					<g>
						<path style="fill:#E0E0E0;" d="M321.241,119.738l-0.996-0.209c2.587-12.35-5.186-28.902-5.265-29.068l0.918-0.437
							C316.227,90.714,323.9,107.049,321.241,119.738z"/>
					</g>
				</g>
			</g>
		</g>
		<g>
			<g>
				<polygon style="fill:#F0F0F0;" points="304.797,132.044 284.8,132.044 281.038,112.35 301.035,112.35 				"/>
			</g>
			<g>
				<polygon style="fill:#FAFAFA;" points="301.598,129.397 286.989,129.397 286.134,124.956 284.231,114.99 298.849,114.99 
					299.783,119.89 				"/>
			</g>
			<g>
				<circle style="fill:#E0E0E0;" cx="290.496" cy="118.784" r="1.487"/>
			</g>
			<g>
				<path style="fill:#E0E0E0;" d="M301.598,129.397h-14.609l-0.855-4.441c0.452-1.152,2.276-2.014,3.315-2.033
					c2.978-0.054,5.617,2.125,7.214-0.725c0.532-0.949,1.718-1.709,3.119-2.308L301.598,129.397z"/>
			</g>
			<g>
				<polygon style="fill:#E0E0E0;" points="281.038,112.35 275.737,131.996 279.702,131.996 284.8,131.996 				"/>
			</g>
		</g>
		<g>
			<g>
				<g>
					
						<ellipse transform="matrix(0.921 -0.3894 0.3894 0.921 -38.8914 46.1077)" style="fill:#E0E0E0;" cx="94.273" cy="118.974" rx="20.181" ry="20.181"/>
				</g>
			</g>
			<g>
				<g>
					
						<ellipse transform="matrix(0.9239 -0.3827 0.3827 0.9239 -38.3535 45.1332)" style="fill:#FAFAFA;" cx="94.273" cy="118.974" rx="18.591" ry="18.591"/>
				</g>
			</g>
			<g>
				<g>
					<g>
						<rect x="93.627" y="102.074" style="fill:#E0E0E0;" width="0.696" height="3.877"/>
					</g>
				</g>
				<g>
					<g>
						<rect x="93.627" y="131.898" style="fill:#E0E0E0;" width="0.696" height="3.877"/>
					</g>
				</g>
			</g>
			<g>
				<g>
					<g>
						<rect x="77.124" y="118.577" style="fill:#E0E0E0;" width="3.877" height="0.696"/>
					</g>
				</g>
				<g>
					<g>
						<rect x="106.948" y="118.577" style="fill:#E0E0E0;" width="3.877" height="0.696"/>
					</g>
				</g>
			</g>
			<g>
				<g>
					<g>
						
							<rect x="102.581" y="108.032" transform="matrix(0.707 -0.7072 0.7072 0.707 -46.0236 105.6654)" style="fill:#E0E0E0;" width="3.877" height="0.696"/>
					</g>
				</g>
				<g>
					<g>
						
							<rect x="81.492" y="129.121" transform="matrix(0.707 -0.7073 0.7073 0.707 -67.1191 96.9453)" style="fill:#E0E0E0;" width="3.877" height="0.696"/>
					</g>
				</g>
			</g>
			<g>
				<g>
					<g>
						
							<rect x="83.082" y="106.442" transform="matrix(0.707 -0.7072 0.7072 0.707 -52.202 90.7517)" style="fill:#E0E0E0;" width="0.696" height="3.877"/>
					</g>
				</g>
				<g>
					<g>
						
							<rect x="104.171" y="127.531" transform="matrix(0.7072 -0.707 0.707 0.7072 -60.9338 111.8102)" style="fill:#E0E0E0;" width="0.696" height="3.877"/>
					</g>
				</g>
			</g>
			<g>
				<g>
					
						<rect x="96.725" y="116.504" transform="matrix(0.3664 -0.9305 0.9305 0.3664 -50.2131 166.3361)" style="fill:#E0E0E0;" width="0.596" height="7.065"/>
				</g>
			</g>
			<g>
				<g>
					<polygon style="fill:#E0E0E0;" points="94.273,119.223 83.43,119.223 83.43,118.627 93.676,118.627 93.676,110.21 
						94.273,110.21 					"/>
				</g>
			</g>
		</g>
		<g>
			<rect y="412.872" style="fill:#E0E0E0;" width="500" height="0.25"/>
		</g>
	</g>
</g>
<g id="Background_simple" style="display:none;">
	<g style="display:inline;">
		<path style="fill:#407BFF;" d="M193.195,85.276c0,0-100.967-1.093-96.529,45.857c4.438,46.95,73.059,48.552,45.936,101.675
			c-27.124,53.122,256.654,108.33,262.323-12.619C410.594,99.239,224.505,83.196,193.195,85.276z"/>
		<path style="opacity:0.9;fill:#FFFFFF;" d="M193.195,85.276c0,0-100.967-1.093-96.529,45.857
			c4.438,46.95,73.059,48.552,45.936,101.675c-27.124,53.122,256.654,108.33,262.323-12.619
			C410.594,99.239,224.505,83.196,193.195,85.276z"/>
	</g>
</g>
<g id="Shadow">
	<g>
		<ellipse style="fill:#F5F5F5;" cx="254.711" cy="447.538" rx="215.083" ry="6.173"/>
	</g>
</g>
<g id="Character_1">
	<g>
		<g>
			<g>
				<g>
					<g>
						<path d="M70.387,243.091c-5.981,3.747-9.139,10.377-8.305,17.074c2.217,17.792,7.84,60.532,11.463,66.984
							c4.595,8.182,67.878,3.287,71.161-4.17c3.284-7.457-5.447-79.966-10.962-85.914
							C129.157,232.116,90.227,230.663,70.387,243.091z"/>
					</g>
				</g>
			</g>
			<g style="opacity:0.6;">
				<g>
					<path style="fill:#FFFFFF;" d="M70.387,243.091c-5.981,3.747-9.139,10.377-8.305,17.074
						c2.217,17.792,7.84,60.532,11.463,66.984c4.595,8.182,67.878,3.287,71.161-4.17c3.284-7.457-5.447-79.966-10.962-85.914
						C129.157,232.116,90.227,230.663,70.387,243.091z"/>
				</g>
			</g>
			<g style="opacity:0.5;">
				<g>
					<path style="fill:#FFFFFF;" d="M77.822,328.808c-0.085-0.489-8.519-49.146-9.454-66.898
						c-0.952-18.067,8.157-22.174,8.545-22.34l0.395,0.919c-0.088,0.039-8.854,4.054-7.941,21.369
						c0.932,17.693,9.355,66.291,9.44,66.779L77.822,328.808z"/>
				</g>
			</g>
			<g>
				<g>
					<g>
						<g>
							<g>
								<rect x="109.471" y="354.379" width="5.599" height="79.542"/>
							</g>
						</g>
					</g>
					<g style="opacity:0.5;">
						<g>
							<g>
								<rect x="109.471" y="354.379" style="fill:#FFFFFF;" width="5.599" height="79.542"/>
							</g>
						</g>
					</g>
					<g>
						<g>
							<g>
								<path d="M72.93,435.128h-4.479v-2.27c0-8.278,6.735-15.013,15.013-15.013h23.627v4.479H83.464
									c-5.808,0-10.534,4.725-10.534,10.534V435.128z"/>
							</g>
						</g>
					</g>
					<g style="opacity:0.6;">
						<g>
							<g>
								<path style="fill:#FFFFFF;" d="M72.93,435.128h-4.479v-2.27c0-8.278,6.735-15.013,15.013-15.013h23.627v4.479H83.464
									c-5.808,0-10.534,4.725-10.534,10.534V435.128z"/>
							</g>
						</g>
					</g>
					<g>
						<g>
							<g>
								
									<ellipse transform="matrix(0.2298 -0.9732 0.9732 0.2298 -373.3325 407.3526)" cx="70.69" cy="439.54" rx="7.64" ry="7.64"/>
							</g>
						</g>
					</g>
					<g style="opacity:0.4;">
						<g>
							<g>
								
									<ellipse transform="matrix(0.2298 -0.9732 0.9732 0.2298 -373.3325 407.3526)" style="fill:#FFFFFF;" cx="70.69" cy="439.54" rx="7.64" ry="7.64"/>
							</g>
						</g>
					</g>
					<g style="opacity:0.5;">
						<g>
							<g>
								<circle style="fill:#FFFFFF;" cx="70.69" cy="439.54" r="3.849"/>
							</g>
						</g>
					</g>
					<g>
						<g>
							<g>
								
									<ellipse transform="matrix(0.7071 -0.7071 0.7071 0.7071 -277.9182 208.1252)" cx="112.27" cy="439.54" rx="7.64" ry="7.64"/>
							</g>
						</g>
					</g>
					<g style="opacity:0.4;">
						<g>
							<g>
								
									<ellipse transform="matrix(0.7071 -0.7071 0.7071 0.7071 -277.9182 208.1252)" style="fill:#FFFFFF;" cx="112.27" cy="439.54" rx="7.64" ry="7.64"/>
							</g>
						</g>
					</g>
					<g style="opacity:0.5;">
						<g>
							<g>
								<circle style="fill:#FFFFFF;" cx="112.27" cy="439.54" r="3.849"/>
							</g>
						</g>
					</g>
					<g>
						<g>
							<g>
								<path d="M155.513,435.128h-4.479v-2.27c0-5.809-4.726-10.534-10.534-10.534h-23.627v-4.479H140.5
									c8.278,0,15.013,6.735,15.013,15.013V435.128z"/>
							</g>
						</g>
					</g>
					<g style="opacity:0.6;">
						<g>
							<g>
								<path style="fill:#FFFFFF;" d="M155.513,435.128h-4.479v-2.27c0-5.809-4.726-10.534-10.534-10.534h-23.627v-4.479H140.5
									c8.278,0,15.013,6.735,15.013,15.013V435.128z"/>
							</g>
						</g>
					</g>
					<g>
						<g>
							<g>
								
									<ellipse transform="matrix(0.6912 -0.7227 0.7227 0.6912 -270.3066 246.4908)" cx="153.273" cy="439.54" rx="7.64" ry="7.64"/>
							</g>
						</g>
					</g>
					<g style="opacity:0.4;">
						<g>
							<g>
								
									<ellipse transform="matrix(0.6912 -0.7227 0.7227 0.6912 -270.3066 246.4908)" style="fill:#FFFFFF;" cx="153.273" cy="439.54" rx="7.64" ry="7.64"/>
							</g>
						</g>
					</g>
					<g style="opacity:0.5;">
						<g>
							<g>
								<path style="fill:#FFFFFF;" d="M149.424,439.54c0,2.126,1.724,3.849,3.85,3.849c2.126,0,3.849-1.724,3.849-3.849
									c0-2.126-1.723-3.849-3.849-3.849C151.147,435.69,149.424,437.414,149.424,439.54z"/>
							</g>
						</g>
					</g>
				</g>
			</g>
			<g>
				<g>
					<g>
						<g>
							<rect x="107.09" y="413.046" width="10.361" height="15.186"/>
						</g>
					</g>
				</g>
				<g style="opacity:0.6;">
					<g>
						<g>
							<rect x="107.09" y="413.046" style="fill:#FFFFFF;" width="10.361" height="15.186"/>
						</g>
					</g>
				</g>
			</g>
			<g>
				<g>
					<g>
						<g>
							<rect x="107.09" y="353.527" width="10.361" height="15.186"/>
						</g>
					</g>
				</g>
				<g style="opacity:0.6;">
					<g>
						<g>
							<rect x="107.09" y="353.527" style="fill:#FFFFFF;" width="10.361" height="15.186"/>
						</g>
					</g>
				</g>
				<g>
					<g>
						<path d="M148.331,327.474c0,0,3.794,0.594,13.321,2.207c3.175,0.537,6.288,1.044,9.029,1.482
							c5.461,0.871,9.473,5.581,9.473,11.111l0,0c0,6.215-5.038,11.253-11.253,11.253H91.661c-7.809,0-14.805-5.139-16.819-12.684
							c-0.929-3.478-1.462-7.862-1.231-13.369H148.331z"/>
					</g>
				</g>
				<g style="opacity:0.5;">
					<g>
						<path style="fill:#FFFFFF;" d="M148.331,327.474c0,0,3.794,0.594,13.321,2.207c3.175,0.537,6.288,1.044,9.029,1.482
							c5.461,0.871,9.473,5.581,9.473,11.111l0,0c0,6.215-5.038,11.253-11.253,11.253H91.661c-7.809,0-14.805-5.139-16.819-12.684
							c-0.929-3.478-1.462-7.862-1.231-13.369H148.331z"/>
					</g>
				</g>
			</g>
		</g>
		<g>
			<g>
				<path style="fill:#407BFF;" d="M132.474,240.935c3.95,5.878,7.771,12.058,11.531,18.071c1.922,2.987,3.748,6.023,5.69,8.883
					c0.946,1.446,1.901,2.863,2.853,4.21c0.936,1.352,1.909,2.638,2.758,3.68l0.983,1.163c0.023,0.034,0.057,0.085,0.013,0.071
					c0.026,0.038-0.196-0.075-0.196-0.05c0.024,0.021,0.046,0.049,0.066,0.088l0.288,0.164c0.445,0.239,1.118,0.513,1.833,0.767
					c0.72,0.253,1.492,0.512,2.288,0.765c3.2,1.016,6.689,1.841,10.163,2.745c6.985,1.728,14.147,3.389,21.253,5.313l-0.493,6.713
					c-7.488,0.788-14.902,1.04-22.438,0.908c-3.782-0.048-7.542-0.268-11.52-0.694c-0.997-0.107-2.013-0.242-3.069-0.429
					c-1.061-0.185-2.153-0.402-3.435-0.768l-1-0.31c-0.398-0.148-0.794-0.306-1.188-0.471c-0.41-0.178-1.037-0.505-1.392-0.721
					c-0.436-0.251-0.77-0.474-1.118-0.706c-1.308-0.899-2.234-1.694-3.12-2.477c-1.73-1.555-3.142-3.053-4.509-4.543
					c-1.352-1.497-2.616-2.992-3.841-4.491c-2.4-3.033-4.728-6.026-6.873-9.125c-4.354-6.171-8.317-12.394-11.88-19.08
					L132.474,240.935z"/>
			</g>
			<path style="opacity:0.2;" d="M133.724,247.848l-4.456-0.734c0,0-2.216,10.612-3.966,18.647c0.885,1.313,1.779,2.623,2.699,3.928
				c2.145,3.098,4.473,6.091,6.873,9.125c1.225,1.5,2.489,2.994,3.841,4.491c1.367,1.491,2.779,2.988,4.509,4.543
				c0.887,0.783,1.812,1.578,3.12,2.477c0.348,0.232,0.682,0.454,1.118,0.706c0.355,0.216,0.982,0.543,1.392,0.721
				c0.394,0.165,0.79,0.323,1.188,0.471l1,0.31c1.282,0.367,2.374,0.583,3.435,0.768c1.056,0.187,2.072,0.322,3.069,0.429
				c3.917,0.419,7.623,0.637,11.348,0.689l0.619,0.006c0.655,0.01,1.305,0.004,1.958,0.009c-3.655-0.144-14.814-1.162-23.044-8.087
				C138.453,277.954,133.724,247.848,133.724,247.848z"/>
		</g>
		<g>
			<g>
				<path style="fill:#407BFF;" d="M105.565,232.113c0,0-20.051,1.963-22.785,12.385c-1.912,7.288-1.343,50.008,12.508,75.818
					c3.918,7.3,55.085-5.257,53.083-10.118c-5.611-13.625-18.776-46.148-14.647-62.35c2.894-11.353-18.649-15.315-18.649-15.315
					L105.565,232.113z"/>
			</g>
		</g>
		<path style="opacity:0.2;" d="M100.181,257.473c0,0-2.126,10.202,1.634,15.74c3.76,5.538,12.114,7.904,16.995,8.559
			c4.881,0.655-22.633,0.647-22.633,0.647l-4.242-19.611L100.181,257.473z"/>
		<g style="opacity:0.2;">
			<g>
				<path style="fill:#FFFFFF;" d="M97.925,317.8c-3.987-5.338-10.279-35.583-10.544-36.868l0.489-0.102
					c0.065,0.313,6.534,31.422,10.456,36.671L97.925,317.8z"/>
			</g>
		</g>
		<g style="opacity:0.2;">
			<g>
				<path d="M85.466,290.816c0,0,3.532,11.133,17.398,11.96s40.098-6.516,40.098-6.516l-0.657-1.986L85.466,290.816z"/>
			</g>
		</g>
		<g>
			<g>
				<path style="fill:#263238;" d="M109.895,248.982l3.034,45.868l8.364,7.186l4.279-10.36c0,0-9.718-27.917-12.237-44.561
					L109.895,248.982z"/>
			</g>
		</g>
		<g>
			<g>
				<g>
					<g>
						<path style="fill:#263238;" d="M124.193,195.285c0,0,3.501,2.595,0.5,8.309l-4.102-8.459L124.193,195.285z"/>
					</g>
				</g>
				<g>
					<g>
						<path style="fill:#263238;" d="M98.547,206.206c0,0-4.404-3.923-4.019-5.6c0.455-1.977,2.722-1.41,2.722-1.41
							s-1.16-7.783,0.687-9.529c1.517-1.435,3.814,0.963,3.814,0.963s5.072-7.519,8.215-7.388c3.142,0.13,1.498,2.749,1.498,2.749
							s8.029-5.809,10.769-4.698c2.74,1.112,1.158,4.117,1.158,4.117s5.896-5.207,7.528-1.991c1.633,3.216-5.407,8.196-5.407,8.196
							s3.956,0.881,2.235,3.497c-1.721,2.616-4.323,1.386-4.323,1.386L98.547,206.206z"/>
					</g>
				</g>
				<g>
					<g>
						<path style="fill:#FF8B7B;" d="M115.5,235.08c-0.881,1.171-2.64,2.575-6.136,3.047c-4.413,0.597-7.096-2.226-8.477-3.717
							c1.251-6.299,1.284-14.925,0.2-20.648l14.107,11.749C114.216,228.884,113.719,232.404,115.5,235.08z"/>
					</g>
				</g>
				<g style="opacity:0.2;">
					<g>
						<path d="M106.838,218.554l8.348,6.95c-0.376,1.282-0.674,2.583-0.797,3.852c-3.192-0.505-7.144-3.11-8.342-6.418
							C105.301,220.88,106.009,218.77,106.838,218.554"/>
					</g>
				</g>
				<g style="opacity:0.2;">
					<g>
						<defs>
							
								<rect id="SVGID_1_" x="105.191" y="219.132" transform="matrix(0.0414 -0.9991 0.9991 0.0414 -117.9003 325.0042)" width="10.48" height="9.631"/>
						</defs>
						<clipPath id="SVGID_00000011021974684910492810000001753101750264387986_">
							<use xlink:href="#SVGID_1_"  style="overflow:visible;"/>
						</clipPath>
					</g>
				</g>
				<g>
					<g>
						<path style="fill:#FF8B7B;" d="M98.75,203.128c-0.6-9.428,8.631-16.572,17.734-12.895c9.239,3.732,10.558,17.726,8.552,26.203
							c-2.229,9.418-13.858,13.763-21.039,6.498C99.223,218.105,99.351,212.557,98.75,203.128"/>
					</g>
				</g>
				<g>
					<path style="fill:#263238;" d="M115.303,208.601c-0.153,0-0.297-0.095-0.353-0.248c-0.239-0.66-0.609-1.059-1.1-1.188
						c-0.591-0.155-1.193,0.114-1.335,0.216c-0.095,0.128-0.266,0.185-0.425,0.129c-0.196-0.069-0.298-0.283-0.23-0.478
						c0.128-0.364,0.981-0.661,1.602-0.664c0.611-0.025,1.645,0.219,2.192,1.73c0.07,0.195-0.03,0.41-0.225,0.48
						C115.389,208.593,115.346,208.601,115.303,208.601z"/>
				</g>
				<g>
					<path style="fill:#263238;" d="M121.17,208.753c-0.03,0-0.061-0.003-0.092-0.011c-0.201-0.05-0.323-0.254-0.272-0.455
						c0.348-1.388,1.218-1.653,1.706-1.687c0.64-0.04,1.448,0.269,1.586,0.608c0.078,0.192-0.015,0.411-0.207,0.489
						c-0.161,0.064-0.338,0.012-0.438-0.119c-0.12-0.085-0.653-0.333-1.125-0.186c-0.378,0.12-0.646,0.482-0.795,1.078
						C121.491,208.639,121.338,208.753,121.17,208.753z"/>
				</g>
				<g>
					<g>
						<path style="fill:#263238;" d="M121.667,216.315c-0.386,0.88-1.332,2.456-3.308,2.79c-0.327,0.073-0.69,0.092-1.08,0.069
							c-1.928-0.103-3-1.077-3.61-2.163c-0.436-0.78-0.626-1.609-0.708-2.188c-0.043-0.325,0.28-0.578,0.58-0.453
							c0.019,0.012,0.039,0.013,0.058,0.025c1.194,0.473,3.841,1.329,7.656,1.322c0.11-0.001,0.217,0.038,0.291,0.115
							C121.689,215.936,121.743,216.131,121.667,216.315z"/>
					</g>
				</g>
				<g>
					<path style="fill:#FF5652;" d="M118.359,219.105c-0.327,0.073-0.69,0.092-1.08,0.069c-1.928-0.103-3-1.077-3.61-2.163
						c0.812-0.102,2.181-0.156,3.375,0.316C118.142,217.762,118.366,218.554,118.359,219.105z"/>
				</g>
				<g>
					<path style="fill:#FFFFFF;" d="M121.547,215.833c-0.062,0.135-0.154,0.278-0.286,0.417c-0.758,0.779-6.863-0.492-7.305-0.841
						c-0.264-0.203-0.334-0.671-0.356-1.014c1.194,0.473,3.841,1.329,7.656,1.322C121.366,215.717,121.473,215.757,121.547,215.833z
						"/>
				</g>
				<g>
					<g>
						<path style="fill:#263238;" d="M98.589,205.197c0.022,0.445,2.067,4.084,4.631,3.346c2.564-0.738,0.974-7.714,0.974-7.714
							s4.95,0.485,3.512-3.72c0,0,3.729,2.639,7.658-0.961c0,0,5.916,3.65,8.785,1.451c0,0,0.347-8.367-9.135-10.526
							C109.7,185.863,97.826,190.034,98.589,205.197z"/>
					</g>
				</g>
				<g>
					<g>
						<path style="fill:#FF8B7B;" d="M94.718,211.009c0.701,2.449,2.467,4.346,4.314,5.332c2.777,1.483,4.845-0.837,4.641-3.813
							c-0.183-2.679-1.849-6.68-4.911-6.935C95.747,205.341,93.917,208.209,94.718,211.009"/>
					</g>
				</g>
			</g>
			<g>
				<g>
					<path style="fill:#263238;" d="M124.298,204.233c-0.131,0-0.258-0.068-0.327-0.19c-0.308-0.545-0.701-0.885-1.167-1.007
						c-0.765-0.204-1.516,0.23-1.523,0.235c-0.179,0.107-0.409,0.048-0.515-0.129c-0.106-0.178-0.049-0.408,0.129-0.515
						c0.041-0.024,1.02-0.603,2.1-0.317c0.669,0.176,1.217,0.635,1.629,1.363c0.102,0.18,0.038,0.409-0.142,0.511
						C124.424,204.218,124.361,204.233,124.298,204.233z"/>
				</g>
			</g>
			<g>
				<g>
					<path style="fill:#263238;" d="M111.213,204.525c-0.055,0-0.111-0.013-0.164-0.039c-0.186-0.091-0.263-0.314-0.173-0.499
						c0.021-0.044,0.526-1.064,1.585-1.416c0.656-0.217,1.366-0.134,2.109,0.251c0.184,0.095,0.256,0.321,0.161,0.505
						c-0.095,0.183-0.322,0.256-0.505,0.161c-0.555-0.286-1.066-0.356-1.522-0.207c-0.757,0.249-1.149,1.026-1.153,1.034
						C111.485,204.448,111.352,204.525,111.213,204.525z"/>
				</g>
			</g>
			<g>
				<g>
					<path style="fill:#FFFFFF;" d="M113.762,210.917c-0.017,0-0.034,0-0.051,0c-1.967-0.028-3.546-1.651-3.519-3.618
						c0.027-1.951,1.624-3.519,3.568-3.519c0.017,0,0.034,0.001,0.05,0.001c0.953,0.014,1.844,0.397,2.508,1.08
						c0.665,0.684,1.023,1.585,1.01,2.538c-0.013,0.953-0.397,1.844-1.08,2.508C115.578,210.56,114.696,210.917,113.762,210.917z
						 M113.761,204.28c-1.672,0-3.044,1.349-3.068,3.026c-0.023,1.692,1.334,3.087,3.025,3.111c0.015,0,0.029,0,0.044,0
						c0.803,0,1.561-0.308,2.138-0.869c0.587-0.571,0.917-1.337,0.929-2.157l0,0c0.024-1.692-1.333-3.087-3.025-3.111
						C113.79,204.28,113.775,204.28,113.761,204.28z"/>
				</g>
			</g>
			<g>
				<g>
					<path style="fill:#FFFFFF;" d="M122.941,210.433c-0.018,0-0.035-0.001-0.052-0.001c-0.953-0.013-1.844-0.397-2.508-1.08
						c-0.665-0.684-1.023-1.585-1.01-2.538c0.027-1.951,1.623-3.519,3.568-3.519c0.017,0,0.034,0.001,0.05,0.001
						c0.953,0.013,1.844,0.397,2.508,1.08c0.665,0.684,1.023,1.584,1.01,2.538l0,0c-0.014,0.954-0.397,1.844-1.08,2.509
						C124.756,210.075,123.874,210.433,122.941,210.433z M122.939,203.795c-1.672,0-3.045,1.349-3.068,3.026
						c-0.011,0.82,0.297,1.595,0.869,2.182c0.571,0.587,1.337,0.917,2.157,0.929c0.804-0.001,1.594-0.297,2.182-0.868
						c0.588-0.571,0.918-1.337,0.929-2.157c0.011-0.82-0.297-1.595-0.869-2.182c-0.571-0.587-1.337-0.917-2.157-0.929
						C122.968,203.796,122.953,203.795,122.939,203.795z"/>
				</g>
			</g>
			<g>
				<g>
					<path style="fill:#FF5652;" d="M118.311,206.482c0,0,1.729,2.748,3.658,4.363c1.929,1.616-3.031,2.741-3.031,2.741
						L118.311,206.482z"/>
				</g>
			</g>
			<g>
				<g>
					<path style="fill:#FFFFFF;" d="M119.621,207.068c-0.046,0-0.093-0.013-0.135-0.04c-1.29-0.826-2.259-0.083-2.3-0.051
						c-0.107,0.086-0.265,0.069-0.351-0.04c-0.086-0.107-0.069-0.264,0.038-0.35c0.012-0.011,1.28-1.005,2.882,0.021
						c0.116,0.074,0.15,0.229,0.076,0.345C119.783,207.027,119.703,207.068,119.621,207.068z"/>
				</g>
			</g>
			<g>
				<g>
					<path style="fill:#FFFFFF;" d="M110.452,206.94c-0.057,0-0.113-0.019-0.16-0.058c-0.148-0.124-3.687-2.995-7.707-0.101
						c-0.112,0.08-0.269,0.055-0.349-0.057c-0.081-0.112-0.055-0.268,0.057-0.349c4.342-3.122,8.281,0.091,8.32,0.124
						c0.106,0.088,0.12,0.246,0.032,0.352C110.594,206.909,110.523,206.94,110.452,206.94z"/>
				</g>
			</g>
		</g>
		<g>
			<g>
				<path style="fill:#407BFF;" d="M101.177,230.734c0,0-5.43,0.211-6.911,5.178l11.911,12.876l3.187-10.661
					C109.364,238.127,102.039,235.534,101.177,230.734z"/>
			</g>
		</g>
		<g>
			<g>
				<path style="fill:#FFFFFF;" d="M105.818,248.65c-0.039,0-0.078-0.009-0.115-0.028c-6.43-3.329-11.331-12.201-11.379-12.291
					c-0.066-0.121-0.022-0.273,0.099-0.339c0.122-0.067,0.273-0.022,0.339,0.099c0.048,0.088,4.878,8.828,11.17,12.086
					c0.123,0.063,0.171,0.214,0.107,0.337C105.996,248.601,105.909,248.65,105.818,248.65z"/>
			</g>
		</g>
		<g>
			<g>
				<path style="fill:#FFFFFF;" d="M115.992,246.022c-0.075,0-0.149-0.034-0.198-0.098c-0.084-0.109-0.063-0.266,0.046-0.351
					c3.051-2.348,5.524-10.314,5.549-10.395c0.039-0.133,0.18-0.21,0.312-0.165c0.132,0.04,0.206,0.18,0.166,0.312
					c-0.102,0.334-2.545,8.2-5.722,10.645C116.099,246.005,116.045,246.022,115.992,246.022z"/>
			</g>
		</g>
		<g>
			<g>
				<path style="fill:#407BFF;" d="M114.143,231.633c0,0-1.299,4.898-4.779,6.494l6.168,6.854c0,0,5.652-7.32,5.072-10.982
					C120.605,233.999,118.35,231.118,114.143,231.633z"/>
			</g>
		</g>
		<g>
			<g>
				<polygon style="fill:#263238;" points="109.364,238.127 106.177,248.788 112.095,253.391 115.532,244.981 				"/>
			</g>
		</g>
		<g>
			<g>
				<path style="fill:#263238;" d="M122.247,314.629c0,0-11.42,25.888,13.087,32.426c16.742,4.466,41.145-6.783,51.949-3.22
					c0,0-4.716,1.658-10.165,19.896c-5.448,18.238-15.948,62.493-15.948,62.493l12.949,0.529c0,0,35.891-81.108,36.587-93.978
					c0.696-12.869-63.52-22.102-63.52-22.102L122.247,314.629z"/>
			</g>
		</g>
		<g>
			<g>
				<path style="fill:#263238;" d="M190.39,333.541c-0.7,12.87-44.43,93.12-44.43,93.12l-11.79-0.31l-0.52-0.01l-3.86-0.1
					c0,0,13.19-42.04,18.64-60.28c4.94-16.53,11.27-18.37,12.41-18.57c-14.55,1.53-32.52,3.41-52.15,1.34
					c-25.39-2.68-14.38-30.44-14.38-30.44l4.36-0.57l0.55-0.07l23.03-3.02C122.25,314.631,191.08,320.671,190.39,333.541z"/>
			</g>
		</g>
		<g style="opacity:0.2;">
			<g>
				<path style="fill:#FFFFFF;" d="M101.501,328.186c-1.22,0-2.504-0.156-3.85-0.469l0.113-0.486
					c3.934,0.912,7.314,0.448,10.044-1.379c4.977-3.331,6.147-10.14,6.158-10.208l0.493,0.08c-0.011,0.071-1.213,7.087-6.37,10.541
					C106.181,327.545,103.975,328.186,101.501,328.186z"/>
			</g>
		</g>
		<g style="opacity:0.2;">
			<g>
				<g>
					<path style="fill:#FFFFFF;" d="M166.25,346.401c-3.65,5.08-9.75,13.59-15.38,26.91c-6.62,15.67-15.91,50.09-16.7,53.04
						c-0.03,0.12-0.05,0.19-0.05,0.2c-0.03,0.11-0.14,0.19-0.25,0.19c-0.02,0-0.04-0.01-0.06-0.01c-0.13-0.04-0.21-0.18-0.18-0.31
						c0-0.01,0.01-0.03,0.02-0.08c0.51-1.88,10.01-37.26,16.76-53.22c5.65-13.38,11.78-21.91,15.43-27.01
						c2.32-3.23,3.85-5.36,3.56-6.37c-0.08-0.27-0.29-0.47-0.67-0.63c-1.44-0.6-8.02,0.11-16.35,1.02
						c-15.49,1.68-36.7,3.99-47.33,0.61c-2.83-0.9-4.92-2.66-6.23-5.23c-3.17-6.23-0.88-15.29-0.15-17.79l0.55-0.07
						c-0.61,2.07-3.1,11.46,0.04,17.64c1.25,2.44,3.25,4.11,5.94,4.97c10.53,3.35,31.69,1.05,47.13-0.63
						c8.73-0.95,15.04-1.63,16.59-0.98c0.53,0.22,0.84,0.53,0.96,0.96C170.23,340.851,168.82,342.821,166.25,346.401z"/>
				</g>
			</g>
		</g>
		<g>
			<g>
				<g>
					<g>
						<polygon style="fill:#FF8B7B;" points="131.566,426.241 129.518,436.639 137.99,436.639 142.79,427.436 						"/>
					</g>
				</g>
				<g>
					<g>
						<path style="fill:#407BFF;" d="M129.491,434.523c0,0-1.94-0.303-1.839,2.116c0.1,2.419-2.005,8.249-1.905,10.491h26.035
							c0,0,0.833-5.551-3.881-5.718c-6.317-0.224-8.476-3.852-8.476-3.852c-0.364-2.538-2.188-1.687-4.857-1.417
							C132.14,436.388,129.491,434.523,129.491,434.523z"/>
					</g>
				</g>
				<g>
					<g>
						<path d="M140.795,439.023c0,0-1.218,0.141-1.813,1.076"/>
					</g>
					<g>
						<path d="M138.982,440.349c-0.046,0-0.093-0.013-0.134-0.039c-0.116-0.074-0.151-0.229-0.077-0.345
							c0.651-1.023,1.94-1.185,1.995-1.19c0.132-0.016,0.261,0.082,0.277,0.219c0.016,0.137-0.082,0.261-0.219,0.277
							c-0.011,0.002-1.11,0.143-1.631,0.962C139.145,440.308,139.064,440.349,138.982,440.349z"/>
					</g>
				</g>
				<g>
					<g>
						<path d="M142.005,439.56c0,0-1.218,0.141-1.813,1.076"/>
					</g>
					<g>
						<path d="M140.193,440.886c-0.046,0-0.093-0.013-0.134-0.039c-0.116-0.074-0.151-0.229-0.077-0.345
							c0.651-1.024,1.94-1.184,1.995-1.19c0.131-0.013,0.26,0.082,0.277,0.219c0.016,0.137-0.082,0.261-0.219,0.277
							c-0.011,0.002-1.109,0.142-1.631,0.961C140.356,440.845,140.275,440.886,140.193,440.886z"/>
					</g>
				</g>
				<g>
					<g>
						<path d="M143.514,440.282c0,0-1.218,0.141-1.813,1.076"/>
					</g>
					<g>
						<path d="M141.701,441.608c-0.046,0-0.093-0.013-0.134-0.039c-0.116-0.074-0.151-0.229-0.077-0.345
							c0.651-1.024,1.94-1.185,1.995-1.19c0.132-0.014,0.261,0.082,0.277,0.219c0.016,0.137-0.082,0.261-0.219,0.277
							c-0.011,0.002-1.109,0.142-1.631,0.962C141.865,441.567,141.784,441.608,141.701,441.608z"/>
					</g>
				</g>
				<g>
					<g>
						<line x1="125.924" y1="445.368" x2="151.557" y2="445.368"/>
					</g>
					<g>
						<path d="M151.557,445.618h-25.633c-0.138,0-0.25-0.112-0.25-0.25s0.112-0.25,0.25-0.25h25.633c0.138,0,0.25,0.112,0.25,0.25
							S151.695,445.618,151.557,445.618z"/>
					</g>
				</g>
			</g>
			<g>
				<g>
					<polygon style="fill:#263238;" points="147.252,430.734 127.175,430.734 128.438,424.563 148.515,424.563 					"/>
				</g>
			</g>
			<g style="opacity:0.3;">
				<g>
					<polygon style="fill:#FFFFFF;" points="147.252,430.734 127.175,430.734 128.438,424.563 148.515,424.563 					"/>
				</g>
			</g>
		</g>
		<g>
			<g>
				<g>
					<g>
						<polygon style="fill:#FF8B7B;" points="162.623,426.241 161.011,436.639 169.483,436.639 173.087,427.35 						"/>
					</g>
				</g>
				<g>
					<g>
						<path style="fill:#407BFF;" d="M160.895,434.523c0,0-1.952-0.303-1.751,2.116c0.202,2.419-1.659,8.249-1.465,10.491h26.035
							c0,0,0.601-5.551-4.121-5.718c-6.327-0.224-8.637-3.852-8.637-3.852c-0.471-2.538-2.258-1.687-4.916-1.417
							C163.622,436.388,160.895,434.523,160.895,434.523z"/>
					</g>
				</g>
				<g>
					<g>
						<path d="M172.388,439.023c0,0-1.212,0.141-1.767,1.076"/>
					</g>
					<g>
						<path d="M170.62,440.349c-0.043,0-0.088-0.012-0.128-0.035c-0.119-0.07-0.158-0.224-0.087-0.343
							c0.612-1.028,1.899-1.19,1.954-1.196c0.135-0.016,0.261,0.082,0.277,0.219c0.016,0.137-0.081,0.261-0.218,0.277
							c-0.011,0.002-1.099,0.143-1.582,0.956C170.788,440.305,170.705,440.349,170.62,440.349z"/>
					</g>
				</g>
				<g>
					<g>
						<path d="M173.621,439.56c0,0-1.212,0.141-1.768,1.076"/>
					</g>
					<g>
						<path d="M171.854,440.886c-0.043,0-0.088-0.012-0.128-0.035c-0.119-0.07-0.158-0.224-0.087-0.343
							c0.612-1.029,1.899-1.189,1.954-1.195c0.131-0.013,0.26,0.082,0.277,0.219c0.016,0.137-0.082,0.261-0.219,0.277
							c-0.011,0.002-1.098,0.142-1.582,0.955C172.021,440.842,171.938,440.886,171.854,440.886z"/>
					</g>
				</g>
				<g>
					<g>
						<path d="M175.159,440.282c0,0-1.212,0.141-1.768,1.076"/>
					</g>
					<g>
						<path d="M173.392,441.608c-0.043,0-0.087-0.012-0.127-0.035c-0.119-0.07-0.158-0.224-0.087-0.343
							c0.611-1.03,1.899-1.19,1.954-1.196c0.136-0.014,0.26,0.082,0.277,0.219c0.016,0.137-0.082,0.261-0.219,0.277
							c-0.011,0.002-1.099,0.142-1.582,0.956C173.561,441.565,173.477,441.608,173.392,441.608z"/>
					</g>
				</g>
				<g>
					<g>
						<line x1="157.783" y1="445.368" x2="183.416" y2="445.368"/>
					</g>
					<g>
						<path d="M183.416,445.618h-25.633c-0.138,0-0.25-0.112-0.25-0.25s0.112-0.25,0.25-0.25h25.633c0.138,0,0.25,0.112,0.25,0.25
							S183.555,445.618,183.416,445.618z"/>
					</g>
				</g>
			</g>
			<g>
				<g>
					<polygon style="fill:#263238;" points="176.309,430.734 158.42,430.734 159.315,424.563 177.203,424.563 					"/>
				</g>
			</g>
			<g style="opacity:0.3;">
				<g>
					<polygon style="fill:#FFFFFF;" points="176.309,430.734 158.42,430.734 159.315,424.563 177.203,424.563 					"/>
				</g>
			</g>
		</g>
		<g>
			<g>
				<path style="fill:#407BFF;" d="M102.23,252.232l-0.402,0.939l-0.464,1.145c-0.308,0.776-0.618,1.563-0.903,2.357
					c-0.564,1.59-1.107,3.18-1.535,4.759c-0.896,3.14-1.44,6.247-1.524,8.86c-0.035,1.298,0.065,2.467,0.247,3.398
					c0.166,0.956,0.435,1.64,0.734,2.219c0.322,0.56,0.707,1.045,1.334,1.583c0.647,0.514,1.534,1.05,2.701,1.472
					c1.154,0.426,2.523,0.773,4.016,1.036l0.58,0.101l0.721,0.106l1.443,0.212l2.89,0.411c3.857,0.547,7.734,1.089,11.622,1.597
					c7.759,1.049,15.64,2.041,23.403,3.165l0.183,10.396c-8.12,1.295-16.126,1.979-24.238,2.386
					c-4.047,0.177-8.103,0.319-12.169,0.32l-3.051-0.011l-1.527-0.012l-0.764-0.006l-0.902-0.043
					c-2.458-0.119-5.018-0.453-7.676-1.145c-2.648-0.675-5.431-1.762-8.12-3.403c-1.337-0.843-2.656-1.796-3.867-2.926
					c-1.206-1.131-2.318-2.389-3.293-3.737c-1.933-2.707-3.276-5.718-4.064-8.616c-0.809-2.917-1.093-5.731-1.162-8.4
					c-0.107-5.341,0.789-10.123,1.991-14.631c0.631-2.247,1.329-4.434,2.163-6.561c0.415-1.064,0.844-2.121,1.312-3.172l0.735-1.582
					l0.395-0.809l0.479-0.942L102.23,252.232z"/>
			</g>
		</g>
		<g style="opacity:0.2;">
			<g>
				<path style="fill:#FFFFFF;" d="M94.601,296.818c-0.001-0.047-0.142-4.649-3.223-7.459c-3.054-2.784-8.33-0.921-8.383-0.9
					l-0.17-0.471c0.228-0.082,5.613-1.983,8.89,1.002c3.243,2.956,3.382,7.62,3.386,7.816L94.601,296.818z"/>
			</g>
		</g>
		<g>
			<g>
				<g>
					<path style="fill:#FF8B7B;" d="M167.103,295.948h-9.806l-10.156-0.472l-1.171-6.849c0,0,9.56-0.831,12.394,0
						c0,0,7.199,3.486,8.143,4.723C167.452,294.588,167.103,295.948,167.103,295.948z"/>
				</g>
			</g>
		</g>
		<g>
			<g>
				<path style="fill:#FFFFFF;" d="M141.675,296.198c-0.07,0-0.139-0.029-0.189-0.086c-1.926-2.22-2.102-9.213-2.108-9.509
					c-0.003-0.139,0.106-0.253,0.245-0.256c0.002,0,0.003,0,0.005,0c0.136,0,0.247,0.108,0.25,0.244
					c0.001,0.071,0.177,7.108,1.986,9.192c0.09,0.104,0.079,0.263-0.025,0.352C141.792,296.178,141.733,296.198,141.675,296.198z"/>
			</g>
		</g>
		<g>
			<g>
				<path style="fill:#FFFFFF;" d="M140.267,292.622c-0.133,0-0.244-0.105-0.25-0.239c-0.006-0.138,0.102-0.255,0.239-0.261
					l6.297-0.269c0.142-0.002,0.254,0.102,0.261,0.239c0.006,0.138-0.102,0.255-0.239,0.261l-6.297,0.269
					C140.274,292.622,140.27,292.622,140.267,292.622z"/>
			</g>
		</g>
		<g>
			<g>
				<g>
					<path style="fill:#FF8B7B;" d="M211.94,294.005h-10.405l-10.776-0.501l-1.243-7.268c0,0,10.145-0.882,13.152,0
						c0,0,7.639,3.699,8.641,5.012C212.311,292.562,211.94,294.005,211.94,294.005z"/>
				</g>
			</g>
		</g>
	</g>
</g>
<g id="Character_2">
	<g>
		<g>
			<path style="fill:#407BFF;" d="M217.36,236.441c0,0-0.873,76.01,0,96.14c0.91,20.984,6.309,93.038,6.373,92.717h12.917
				c0,0,10.714-141.109,11.709-155.946c0.995-14.837-3.866-27.651-3.866-27.651L217.36,236.441z"/>
		</g>
		<g>
			<path style="fill:#407BFF;" d="M275.978,244.516c0,0,6.37,70.545,7.41,90.628c1.041,20.083,3.852,90.824,3.852,90.824
				l-13.738-0.776c0,0-24.77-141.972-27.33-156.783c-2.56-14.81,0.494-23.982,0.494-23.982L275.978,244.516z"/>
		</g>
		<g style="opacity:0.2;">
			<path style="fill:#FFFFFF;" d="M277.432,264.119c-2.48,0-4.517-0.823-6.059-2.448c-3.85-4.063-3.314-11.648-3.289-11.968
				l0.498,0.038c-0.006,0.077-0.543,7.687,3.155,11.586c1.495,1.577,3.503,2.348,5.952,2.289l0.012,0.5
				C277.61,264.118,277.521,264.119,277.432,264.119z"/>
		</g>
		<g style="opacity:0.2;">
			<path style="fill:#FFFFFF;" d="M250.563,268.689c-0.395,0-0.831-0.068-1.308-0.227l0.157-0.475
				c1.424,0.473,2.592,0.111,3.477-1.07c0.6-0.8,0.93-1.888,0.93-3.063v-14.133h0.5v14.133c0,1.283-0.365,2.478-1.029,3.363
				C252.746,267.942,251.869,268.689,250.563,268.689z"/>
		</g>
		<g style="opacity:0.2;">
			<rect x="249.083" y="248.652" style="fill:#FFFFFF;" width="0.5" height="27.19"/>
		</g>
		<g style="opacity:0.2;">
			<g>
				<path style="fill:#FFFFFF;" d="M277.732,425.733c-0.119,0-0.225-0.085-0.246-0.207l-26-148.352
					c-0.024-0.136,0.067-0.266,0.203-0.289c0.131-0.03,0.266,0.066,0.289,0.203l26,148.353c0.024,0.136-0.067,0.266-0.203,0.289
					C277.76,425.732,277.746,425.733,277.732,425.733z"/>
			</g>
		</g>
		<g>
			<g>
				<g>
					<g>
						<polygon style="fill:#CE7A63;" points="235.396,425.968 235.125,436.502 226.654,436.502 224.731,427.091 						"/>
					</g>
				</g>
				<g>
					<g>
						<path style="fill:#263238;" d="M235.624,434.358c0,0,2.007-0.307,1.368,2.143c-0.639,2.45,0.166,8.356-0.435,10.628h-26.035
							c0,0,0.404-5.623,5.156-5.792c6.367-0.227,9.335-3.903,9.335-3.903c0.93-2.571,2.564-1.709,5.173-1.436
							C232.56,436.247,235.624,434.358,235.624,434.358z"/>
					</g>
				</g>
				<g>
					<g>
						<path d="M223.317,438.917c0,0,1.186,0.143,1.573,1.09"/>
					</g>
					<g>
						<path style="fill:#FFFFFF;" d="M224.89,440.246c-0.094,0-0.184-0.056-0.222-0.149c-0.327-0.802-1.37-0.942-1.38-0.943
							c-0.131-0.016-0.224-0.136-0.208-0.266c0.016-0.132,0.133-0.222,0.266-0.208c0.054,0.007,1.332,0.172,1.766,1.237
							c0.05,0.123-0.009,0.263-0.131,0.312C224.951,440.24,224.92,440.246,224.89,440.246z"/>
					</g>
				</g>
				<g>
					<g>
						<path d="M221.987,439.462c0,0,1.186,0.143,1.573,1.09"/>
					</g>
					<g>
						<path style="fill:#FFFFFF;" d="M223.559,440.791c-0.094,0-0.184-0.056-0.221-0.149c-0.327-0.802-1.37-0.942-1.38-0.943
							c-0.131-0.016-0.224-0.135-0.208-0.266c0.016-0.132,0.136-0.221,0.266-0.208c0.054,0.007,1.331,0.172,1.766,1.237
							c0.05,0.122-0.009,0.263-0.131,0.312C223.62,440.785,223.59,440.791,223.559,440.791z"/>
					</g>
				</g>
				<g>
					<g>
						<path d="M220.318,440.193c0,0,1.186,0.143,1.573,1.09"/>
					</g>
					<g>
						<path style="fill:#FFFFFF;" d="M221.89,441.522c-0.094,0-0.184-0.056-0.222-0.149c-0.329-0.808-1.369-0.941-1.38-0.943
							c-0.131-0.016-0.225-0.135-0.209-0.266c0.016-0.131,0.138-0.217,0.266-0.208c0.054,0.007,1.331,0.172,1.766,1.237
							c0.05,0.122-0.009,0.263-0.131,0.312C221.951,441.516,221.921,441.522,221.89,441.522z"/>
					</g>
				</g>
				<g>
					<g>
						<line x1="236.773" y1="445.345" x2="211.14" y2="445.345"/>
					</g>
					<g>
						<path style="fill:#FFFFFF;" d="M236.773,445.585H211.14c-0.132,0-0.239-0.108-0.239-0.239c0-0.132,0.107-0.239,0.239-0.239
							h25.633c0.132,0,0.239,0.108,0.239,0.239C237.012,445.477,236.905,445.585,236.773,445.585z"/>
					</g>
				</g>
			</g>
			<g>
				<g>
					<polygon style="fill:#263238;" points="222.13,430.52 238.785,430.52 239.008,424.268 221.987,424.268 					"/>
				</g>
			</g>
		</g>
		<g>
			<g>
				<g>
					<g>
						<polygon style="fill:#CE7A63;" points="274.773,425.977 277.479,436.398 285.951,436.398 285.698,427.089 						"/>
					</g>
				</g>
				<g>
					<g>
						<path style="fill:#263238;" d="M276.98,434.255c0,0-2.007-0.307-1.368,2.143c0.639,2.45-0.166,8.356,0.435,10.628h26.035
							c0,0-0.404-5.623-5.156-5.792c-6.367-0.227-9.335-3.903-9.335-3.903c-0.93-2.571-2.564-1.709-5.173-1.436
							C280.044,436.144,276.98,434.255,276.98,434.255z"/>
					</g>
				</g>
				<g>
					<g>
						<path d="M289.287,438.813c0,0-1.187,0.143-1.573,1.09"/>
					</g>
					<g>
						<path style="fill:#FFFFFF;" d="M287.715,440.142c0.094,0,0.184-0.056,0.221-0.149c0.327-0.802,1.37-0.942,1.38-0.943
							c0.131-0.016,0.224-0.135,0.208-0.266c-0.016-0.132-0.133-0.221-0.266-0.208c-0.054,0.007-1.332,0.172-1.766,1.237
							c-0.05,0.122,0.009,0.263,0.131,0.312C287.654,440.137,287.684,440.142,287.715,440.142z"/>
					</g>
				</g>
				<g>
					<g>
						<path d="M290.618,439.358c0,0-1.186,0.143-1.573,1.09"/>
					</g>
					<g>
						<path style="fill:#FFFFFF;" d="M289.045,440.687c0.094,0,0.184-0.056,0.222-0.149c0.327-0.802,1.37-0.942,1.38-0.943
							c0.131-0.016,0.224-0.135,0.208-0.266c-0.016-0.132-0.136-0.221-0.266-0.208c-0.054,0.007-1.332,0.172-1.766,1.237
							c-0.05,0.122,0.009,0.263,0.131,0.312C288.984,440.682,289.015,440.687,289.045,440.687z"/>
					</g>
				</g>
				<g>
					<g>
						<path d="M292.287,440.089c0,0-1.186,0.143-1.573,1.09"/>
					</g>
					<g>
						<path style="fill:#FFFFFF;" d="M290.714,441.418c0.094,0,0.184-0.056,0.221-0.149c0.329-0.808,1.369-0.941,1.38-0.943
							c0.131-0.016,0.225-0.135,0.209-0.266c-0.016-0.131-0.138-0.217-0.266-0.208c-0.054,0.007-1.331,0.172-1.766,1.237
							c-0.05,0.122,0.009,0.263,0.131,0.312C290.654,441.413,290.684,441.418,290.714,441.418z"/>
					</g>
				</g>
				<g>
					<g>
						<line x1="275.832" y1="445.242" x2="301.465" y2="445.242"/>
					</g>
					<g>
						<path style="fill:#FFFFFF;" d="M275.832,445.481h25.633c0.132,0,0.239-0.107,0.239-0.239s-0.107-0.239-0.239-0.239h-25.633
							c-0.132,0-0.239,0.108-0.239,0.239S275.699,445.481,275.832,445.481z"/>
					</g>
				</g>
			</g>
			<g>
				<g>
					<polygon style="fill:#263238;" points="289.661,430.52 272.413,430.717 271.266,424.475 289.438,424.268 					"/>
				</g>
			</g>
		</g>
		<g>
			<g>
				<path style="fill:#263238;" d="M270.245,152.231l3.422,4.277l3.501,4.331c2.331,2.882,4.702,5.714,7.08,8.465
					c2.403,2.716,4.786,5.415,7.22,7.751c1.204,1.177,2.397,2.297,3.519,3.198c0.557,0.451,1.091,0.853,1.555,1.171
					c0.248,0.183,0.41,0.255,0.615,0.404c0.097,0.066,0.136,0.073,0.204,0.119l0.091,0.061l0.045,0.033
					c0.026,0.016-0.095-0.03-0.136-0.038c-1.055-0.228-1.163-0.028-0.98-0.012c0.193,0.045,0.714-0.01,1.29-0.13
					c1.188-0.238,2.681-0.774,4.207-1.378c3.089-1.219,6.312-2.913,9.549-4.643c6.446-3.534,12.98-7.58,19.38-11.541l6.448,7.581
					c-5.45,5.925-11.182,11.285-17.551,16.357c-3.185,2.544-6.532,4.93-10.337,7.186c-1.924,1.12-3.964,2.167-6.458,3.092
					c-1.264,0.453-2.62,0.884-4.344,1.16c-1.724,0.236-3.81,0.469-6.713-0.348c-1.985-0.63-3.145-1.194-4.423-1.852
					c-1.211-0.64-2.291-1.298-3.307-1.964c-2.024-1.335-3.804-2.687-5.473-4.084c-3.321-2.808-6.324-5.65-9.14-8.618
					c-2.835-2.941-5.489-5.97-8.062-9.046c-1.269-1.553-2.531-3.104-3.752-4.691l-1.818-2.398l-1.806-2.51L270.245,152.231z"/>
			</g>
			<g>
				<g>
					<path style="fill:#CE7A63;" d="M330.805,164.298c0,0,4.422-3.766,5.991-6.365c1.569-2.599,9.893,5.993,10.005,7.226
						c0.112,1.233-9.548,6.72-9.548,6.72L330.805,164.298z"/>
				</g>
				<g>
					<path style="fill:#CE7A63;" d="M335.893,157.801c0,0,7.767-9.756,9.709-10.803c1.942-1.048-3.06,8.189-3.06,8.189
						s6.723,3.735,6.873,6.201c0.149,2.465-1.278,4.783-2.914,5.229c-1.635,0.447-2.839-1.121-2.839-1.121L335.893,157.801z"/>
				</g>
				<g>
					<path style="fill:#CE7A63;" d="M332.396,163.813c0,0,0.643-10.062,2.287-10.286c1.644-0.224,5.02,4.871,5.02,4.871
						L332.396,163.813z"/>
				</g>
			</g>
			<g>
				<path style="fill:#263238;" d="M237.181,145.859c0,0-18.959,6.507-20.235,11.317c-1.276,4.81,1.784,42.433,1.944,49.59
					c0.16,7.156-5.709,33.629-1.641,38.709c4.358,5.444,58.548,8.44,59.491,1.949c1.22-8.4-1.809-35.449-1.49-44.855
					s-2.608-46.693-4.682-50.312c-2.074-3.619-20.881-5.559-20.881-5.559L237.181,145.859z"/>
			</g>
			<g style="opacity:0.2;">
				<g>
					<path style="fill:#FFFFFF;" d="M219.932,246.257c-1.486-3.973,0.843-18.712,2.544-29.475c0.425-2.692,0.792-5.017,1.049-6.851
						c1.252-8.959-2.247-29.126-2.282-29.329l0.492-0.086c0.036,0.203,3.547,20.447,2.285,29.484
						c-0.257,1.838-0.624,4.165-1.05,6.859c-1.596,10.103-4.009,25.371-2.568,29.222L219.932,246.257z"/>
				</g>
			</g>
			<g>
				<g>
					<g>
						<path style="fill:#263238;" d="M234.809,121.028c0,0-2.476-7.448-1.519-10.479c0.957-3.031,3.101-3.43,3.101-3.43
							s1.207-8.056,9.183-7.578c7.977,0.479,17.23-2.393,18.985,1.755c1.755,4.148-4.56,6.86-4.56,6.86s2.504,2.961,1.547,5.424
							c-0.957,2.463-3.152,0.16-3.152,0.16L234.809,121.028z"/>
					</g>
					<g>
						<path style="fill:#CE7A63;" d="M252.183,149.903c-0.881,1.168-1.886,3.499-5.38,3.968c-4.413,0.593-9.452-4.068-10.002-5.978
							c1.254-6.308,2.048-13.592,0.967-19.316l5.753,4.796l8.347,6.949l0.01,0.01c-0.048,0.153-0.086,0.316-0.134,0.469
							c-0.057,0.211-0.096,0.421-0.144,0.632c-0.115,0.517-0.201,1.024-0.258,1.532c-0.048,0.412-0.077,0.814-0.086,1.216
							c-0.038,1.244,0.067,2.451,0.306,3.599C251.714,148.515,251.925,149.223,252.183,149.903z"/>
					</g>
					<g>
						<path style="fill:#FFFFFF;" d="M246.419,163.326c-2.01,0-3.804-0.632-5.349-1.888c-5.234-4.252-5.887-14.092-5.912-14.508
							c-0.008-0.138,0.097-0.256,0.234-0.265c0.146-0.014,0.256,0.097,0.265,0.234c0.006,0.1,0.666,10.038,5.73,14.151
							c1.81,1.471,3.986,2.032,6.476,1.666c1.855-0.272,3.248-1.142,4.138-2.586c2.761-4.472-0.025-13.052-0.054-13.138
							c-0.043-0.131,0.027-0.272,0.159-0.316c0.126-0.044,0.272,0.027,0.315,0.159c0.119,0.361,2.886,8.89,0.005,13.558
							c-0.973,1.575-2.483,2.523-4.492,2.818C247.416,163.288,246.911,163.326,246.419,163.326z"/>
					</g>
					<g style="opacity:0.2;">
						<path d="M251.561,147.778c-3.121-0.651-6.968-3.178-8.117-6.346c-0.747-2.058-0.038-4.164,0.794-4.384l7.103,5.916
							c-0.048,0.412-0.077,0.814-0.086,1.216C251.217,145.423,251.322,146.629,251.561,147.778z"/>
					</g>
					<g>
						<path style="fill:#CE7A63;" d="M235.435,117.949c-0.601-9.428,8.631-16.572,17.734-12.895
							c9.239,3.732,10.558,17.726,8.552,26.203c-2.229,9.418-13.859,13.763-21.039,6.499
							C235.908,132.927,236.035,127.378,235.435,117.949"/>
					</g>
					<g style="opacity:0.2;">
						<path d="M243.894,112.607c0,0,1.808,3.804-0.765,4.821c-2.572,1.017,0,5.644,0,5.644l-5.385,2.034
							c0,0-2.752-2.701-2.752-6.795c0-4.094,0.223-6.803,0.223-6.803L243.894,112.607z"/>
					</g>
					<g>
						<path style="fill:#263238;" d="M234.992,112.782c0,0,5.745,1.595,8.137,0.479c2.392-1.117-1.277-2.872,0.558-4.387
							c1.835-1.516,12.109-0.863,14.988,0.644c2.88,1.507,0.168-5.43-5.576-6.308C247.356,102.333,236.029,103.609,234.992,112.782z
							"/>
					</g>
					<g>
						<path style="fill:#263238;" d="M239.12,124.428c0,0-5.484,5.073-0.904,12.619c2.904,4.786,10.986,8.889,16.089,8.16
							c7.19-1.027,7.852-16.228,7.852-16.228s-2.127-2.323-4.85-0.572c-2.723,1.751-5.224-1.825-7.428-1.825
							c-2.204,0-4.31,3.355-5.985,1.994c-1.675-1.361-0.765-5.504-0.765-5.504L239.12,124.428z"/>
					</g>
					<g>
						<path style="fill:#CE7A63;" d="M231.403,124.248c0.701,2.449,2.467,4.346,4.314,5.332c2.778,1.484,4.845-0.837,4.641-3.813
							c-0.183-2.679-1.849-6.68-4.911-6.935C232.431,118.58,230.601,121.448,231.403,124.248"/>
					</g>
					<g>
						<path style="fill:#263238;" d="M249.879,122.541c0.002,0.768,0.41,1.389,0.912,1.388c0.502-0.001,0.907-0.625,0.906-1.392
							c-0.002-0.768-0.41-1.389-0.912-1.388C250.283,121.15,249.877,121.773,249.879,122.541"/>
					</g>
					<g>
						<path style="fill:#263238;" d="M258.294,122.42c0.002,0.768,0.41,1.389,0.912,1.388c0.502-0.001,0.907-0.624,0.906-1.392
							s-0.41-1.389-0.912-1.388C258.698,121.029,258.293,121.652,258.294,122.42"/>
					</g>
				</g>
				<g>
					<path style="fill:#FFFFFF;" d="M250.517,129.502c0,0,2.87,1.371,7.576,0.856c0,0-0.496,3.319-3.543,3.387
						C250.866,133.826,250.517,129.502,250.517,129.502z"/>
				</g>
				<g>
					<path style="fill:#263238;" d="M260.982,119.055c-0.131,0-0.258-0.068-0.326-0.19c-0.309-0.545-0.701-0.884-1.167-1.007
						c-0.767-0.202-1.517,0.23-1.525,0.235c-0.173,0.105-0.407,0.05-0.514-0.129c-0.107-0.178-0.049-0.408,0.129-0.515
						c0.04-0.024,1.022-0.602,2.101-0.317c0.669,0.176,1.217,0.635,1.628,1.363c0.103,0.18,0.039,0.409-0.142,0.511
						C261.108,119.039,261.045,119.055,260.982,119.055z"/>
				</g>
				<g>
					<path style="fill:#263238;" d="M247.897,119.347c-0.055,0-0.111-0.013-0.164-0.039c-0.186-0.091-0.263-0.314-0.173-0.499
						c0.021-0.044,0.526-1.063,1.585-1.415c0.656-0.218,1.366-0.134,2.109,0.25c0.185,0.095,0.257,0.321,0.161,0.505
						c-0.096,0.185-0.322,0.256-0.505,0.161c-0.555-0.287-1.066-0.357-1.523-0.206c-0.757,0.248-1.148,1.026-1.152,1.034
						C248.169,119.27,248.036,119.347,247.897,119.347z"/>
				</g>
				<g>
					<path style="fill:#BA4D3C;" d="M254.995,121.303c0,0,0.562,2.427,2.491,4.042c1.929,1.616-1.864,3.062-1.864,3.062
						L254.995,121.303z"/>
				</g>
			</g>
			<g>
				<path style="fill:#263238;" d="M233.353,168.555l-16.49,16.684c-2.696,2.806-5.423,5.563-7.964,8.386
					c-2.563,2.77-5.068,5.633-7.013,8.269c-0.483,0.644-0.924,1.271-1.264,1.799c-0.339,0.503-0.573,0.995-0.592,0.867
					c0.012-0.08,0.001-0.13,0.026-0.364l-0.001-0.143c0.007-0.085,0.011-0.17,0.011-0.255c0.001-0.17-0.022-0.35-0.029-0.474
					c-0.069-0.58-0.214-0.868-0.268-0.953c-0.139-0.184-0.051,0.198,0.202,0.653c0.515,0.956,1.536,2.25,2.678,3.488
					c1.16,1.248,2.452,2.533,3.809,3.797c5.486,5.035,11.826,9.924,18.003,14.649l-4.826,8.704
					c-3.928-1.587-7.602-3.334-11.327-5.229c-3.691-1.923-7.35-3.969-10.959-6.355c-1.81-1.193-3.619-2.456-5.412-3.921
					c-1.8-1.48-3.608-3.057-5.467-5.337c-0.923-1.164-1.889-2.512-2.729-4.576c-0.409-1.021-0.792-2.296-0.921-3.876
					c-0.039-0.374-0.042-0.805-0.034-1.225l0.024-0.63l0.051-0.516c0.076-0.734,0.19-1.27,0.313-1.839
					c0.507-2.065,1.112-3.408,1.694-4.682c0.589-1.249,1.184-2.34,1.784-3.383c2.428-4.091,4.959-7.492,7.547-10.863
					c2.632-3.304,5.267-6.514,8.026-9.585c2.731-3.095,5.538-6.086,8.387-9.027c2.889-2.928,5.734-5.773,8.854-8.592
					L233.353,168.555z"/>
			</g>
			<g>
				<path style="fill:#CE7A63;" d="M217.846,220.221c0,0,5.532,3.556,5.891,6.891c0.359,3.335-2.108,10.993-4.428,10.634
					c-2.319-0.359-4.076-0.735-5.145-4.085C213.096,230.311,217.846,220.221,217.846,220.221z"/>
			</g>
		</g>
		<g style="opacity:0.2;">
			<path style="fill:#FFFFFF;" d="M217.133,264.115l-0.04-0.498c9.934-0.793,9.634-15.162,9.629-15.307l0.5-0.015
				C227.227,248.445,227.54,263.285,217.133,264.115z"/>
		</g>
	</g>
</g>
<g id="Table">
	<g>
		<g>
			<g>
				<g>
					<path style="fill:#407BFF;" d="M236.907,296.842h-60.661c-1.447,0-2.471-1.414-2.019-2.789l13.178-40.127
						c0.286-0.872,1.101-1.462,2.019-1.462h60.661c1.447,0,2.471,1.414,2.019,2.789l-13.178,40.127
						C238.639,296.252,237.825,296.842,236.907,296.842z"/>
				</g>
				<g style="opacity:0.6;">
					<path style="fill:#FFFFFF;" d="M236.907,296.842h-60.661c-1.447,0-2.471-1.414-2.019-2.789l13.178-40.127
						c0.286-0.872,1.101-1.462,2.019-1.462h60.661c1.447,0,2.471,1.414,2.019,2.789l-13.178,40.127
						C238.639,296.252,237.825,296.842,236.907,296.842z"/>
				</g>
				<g style="opacity:0.5;">
					<path style="fill:#FFFFFF;" d="M219.195,275.429c-0.464,2.648-3.017,4.795-5.702,4.795c-2.686,0-4.487-2.147-4.024-4.795
						c0.464-2.648,3.017-4.795,5.702-4.795C217.858,270.634,219.659,272.781,219.195,275.429z"/>
				</g>
			</g>
			<g>
				<g>
					<path style="fill:#407BFF;" d="M154.644,295.948l-1.287,3.86c-0.391,1.174,0.482,2.386,1.72,2.386h80.348
						c0.78,0,1.473-0.499,1.72-1.239l1.669-5.006H154.644z"/>
				</g>
				<g style="opacity:0.6;">
					<path style="fill:#FFFFFF;" d="M154.644,295.948l-1.287,3.86c-0.391,1.174,0.482,2.386,1.72,2.386h80.348
						c0.78,0,1.473-0.499,1.72-1.239l1.669-5.006H154.644z"/>
				</g>
				<g>
					<path style="fill:#407BFF;" d="M238.638,296.198h-64.124c-0.138,0-0.25-0.112-0.25-0.25c0-0.138,0.112-0.25,0.25-0.25h64.124
						c0.138,0,0.25,0.112,0.25,0.25C238.888,296.086,238.776,296.198,238.638,296.198z"/>
				</g>
			</g>
		</g>
		<g>
			<g>
				<g>
					<path style="fill:#407BFF;" d="M279.104,296.842h60.661c1.447,0,2.471-1.414,2.019-2.789l-13.178-40.127
						c-0.286-0.872-1.101-1.462-2.019-1.462h-60.66c-1.447,0-2.471,1.414-2.019,2.789l13.178,40.127
						C277.371,296.252,278.185,296.842,279.104,296.842z"/>
				</g>
				<g style="opacity:0.6;">
					<path style="fill:#FFFFFF;" d="M279.104,296.842h60.661c1.447,0,2.471-1.414,2.019-2.789l-13.178-40.127
						c-0.286-0.872-1.101-1.462-2.019-1.462h-60.66c-1.447,0-2.471,1.414-2.019,2.789l13.178,40.127
						C277.371,296.252,278.185,296.842,279.104,296.842z"/>
				</g>
				<g style="opacity:0.4;">
					<path style="fill:#FFFFFF;" d="M284.584,292.764h49.511c1.181,0,2.017-1.154,1.648-2.276l-10.756-32.752
						c-0.234-0.712-0.899-1.194-1.648-1.194h-49.511c-1.181,0-2.017,1.154-1.648,2.276l10.755,32.752
						C283.17,292.282,283.835,292.764,284.584,292.764z"/>
				</g>
			</g>
			<g>
				<g>
					<path style="fill:#407BFF;" d="M361.367,295.948l1.287,3.86c0.391,1.174-0.482,2.386-1.72,2.386h-80.348
						c-0.78,0-1.473-0.499-1.72-1.239l-1.669-5.006H361.367z"/>
				</g>
				<g style="opacity:0.4;">
					<path style="fill:#FFFFFF;" d="M361.367,295.948l1.287,3.86c0.391,1.174-0.482,2.386-1.72,2.386h-80.348
						c-0.78,0-1.473-0.499-1.72-1.239l-1.669-5.006H361.367z"/>
				</g>
			</g>
		</g>
		<g>
			<g>
				<g>
					<rect x="152.467" y="302.194" width="243.459" height="7.357"/>
				</g>
				<g style="opacity:0.8;">
					<rect x="152.467" y="302.194" style="fill:#FFFFFF;" width="243.459" height="7.357"/>
				</g>
			</g>
			<g>
				<g>
					<g>
						<polygon points="168.554,309.552 146.682,447.08 151.074,447.18 178.172,309.552 						"/>
					</g>
				</g>
				<g style="opacity:0.8;">
					<g>
						<polygon style="fill:#FFFFFF;" points="168.554,309.552 146.682,447.075 151.074,447.175 178.172,309.552 						"/>
					</g>
				</g>
				<g>
					<g>
						<polygon points="375.652,309.552 397.524,447.08 393.133,447.18 366.034,309.552 						"/>
					</g>
				</g>
				<g style="opacity:0.8;">
					<g>
						<polygon style="fill:#FFFFFF;" points="375.652,309.552 397.524,447.075 393.133,447.175 366.034,309.552 						"/>
					</g>
				</g>
				<g>
					<g>
						<rect x="168.828" y="317.158" width="202.061" height="2.821"/>
					</g>
					<g style="opacity:0.8;">
						<rect x="168.828" y="317.158" style="fill:#FFFFFF;" width="202.061" height="2.821"/>
					</g>
				</g>
			</g>
		</g>
	</g>
</g>
<g id="Character_3">
	<g>
		<g>
			<path style="fill:#263238;" d="M396.922,314.629c0,0,11.42,25.888-13.087,32.426c-16.742,4.466-41.145-6.783-51.949-3.22
				c0,0,4.716,1.658,10.165,19.896c5.448,18.238,14.797,52.303,14.797,52.303l-12.949,0.529c0,0-34.74-70.918-35.436-83.788
				c-0.696-12.869,63.52-22.102,63.52-22.102L396.922,314.629z"/>
		</g>
		<g>
			<path style="fill:#263238;" d="M424.864,318.291c0,0,11.005,27.758-14.389,30.438c-19.703,2.079-37.744,0.17-52.325-1.357
				c0,0,7.144,0.348,12.592,18.587c5.448,18.238,15.667,50.199,15.667,50.199l-16.01,0.056c0,0-40.921-69.807-41.616-82.676
				c-0.696-12.869,68.14-18.908,68.14-18.908L424.864,318.291z"/>
		</g>
		<g style="opacity:0.2;">
			<path style="fill:#FFFFFF;" d="M352.844,417.923c-1.116-2.98-27.344-73.047-27.344-77.422c0-4.472,38.936-9.628,43.376-10.201
				l0.064,0.496c-17.261,2.229-42.94,6.652-42.94,9.705c0,4.285,27.039,76.518,27.313,77.246L352.844,417.923z"/>
		</g>
		<g>
			<g>
				<g>
					<polygon style="fill:#B55B52;" points="384.896,417.835 386.944,428.233 378.472,428.233 373.672,419.03 					"/>
				</g>
			</g>
			<g>
				<path style="fill:#263238;" d="M386.944,426.487c0.311,2.519-8.08,0.434-8.937,1.746c-0.855,1.308-1.985,5.689-3.289,7.895
					c-1.303,2.206-8.684,9.316-8.684,9.316h15.745l2.378-3.432l0.78,3.432h4.35C389.287,445.444,387.637,428.263,386.944,426.487z"
					/>
			</g>
			<g>
				<polygon style="fill:#263238;" points="369.21,422.328 389.287,422.328 388.024,416.157 367.947,416.157 				"/>
			</g>
			<g style="opacity:0.3;">
				<polygon style="fill:#FFFFFF;" points="369.21,422.328 389.287,422.328 388.024,416.157 367.947,416.157 				"/>
			</g>
		</g>
		<g>
			<g>
				<g>
					<g>
						<path style="fill:#263238;" d="M352.42,214.502c-0.15,0.052-0.322,0.025-0.452-0.084c-0.195-0.166-0.22-0.458-0.054-0.654
							c1.658-1.96,3.788-1.719,3.877-1.708c0.254,0.032,0.435,0.264,0.403,0.518c-0.031,0.253-0.262,0.434-0.516,0.403
							c-0.07-0.008-1.732-0.179-3.056,1.386C352.567,214.429,352.496,214.476,352.42,214.502"/>
					</g>
					<g>
						<path style="fill:#A02724;" d="M353.293,216.519c0,0-0.696,3.501-1.828,5.335c1.172,0.754,2.798,0.017,2.798,0.017
							L353.293,216.519z"/>
					</g>
					<g>
						<path style="fill:#263238;" d="M354.506,216.753c0.219,0.759-0.006,1.491-0.502,1.634c-0.496,0.143-1.076-0.356-1.296-1.116
							c-0.219-0.759,0.005-1.491,0.502-1.634C353.706,215.494,354.286,215.994,354.506,216.753"/>
					</g>
					<g>
						<path style="fill:#263238;" d="M353.441,215.616l-1.976,0.001C351.466,215.617,352.813,216.771,353.441,215.616"/>
					</g>
					<g>
						<path style="fill:#263238;" d="M353.499,204.129c0,0-4.353,1.112-0.783,7.646l3.25-6.681L353.499,204.129z"/>
					</g>
					<g>
						<path style="fill:#263238;" d="M372.047,197.202c0,0-3.7-14.475,8.099-13.398c11.798,1.077,9.724,11.037,9.724,11.037
							s7.113,0.254,3.885,8.4c-3.228,8.146-15.897,2.953-15.897,2.953C374.842,204.201,373.069,201.051,372.047,197.202z"/>
					</g>
					<g>
						<path style="fill:#B55B52;" d="M377.135,240.242c-3.172-0.32-5.511,0.342-7.177,1.239c1.474-2.777,0.246-5.927-1.41-8.8
							l8.17-12.292c0.502,5.97,2.35,16.65,7.38,19.298C384.098,239.687,385.754,241.118,377.135,240.242z"/>
					</g>
					<g style="opacity:0.2;">
						<path d="M373.387,225.401l-4.836,7.272c0.56,0.965,1.066,1.962,1.432,2.967c2.311-1.035,4.868-4.625,4.405-7.222
							C374.157,227.123,373.76,225.929,373.387,225.401"/>
					</g>
					<g>
						<path style="fill:#B55B52;" d="M378.896,208.906c1.117,9.426,1.792,13.392-2.049,19.031c-5.777,8.481-17.6,7.792-21.511-1.11
							c-3.521-8.013-4.757-22.082,3.696-27.446C367.359,194.095,377.778,199.479,378.896,208.906"/>
					</g>
					<g>
						<path style="fill:#263238;" d="M364.14,195.269c0,0,8.581-2.389,14.527,3.004c5.946,5.393,7.524,19.536-1.406,29.032
							c0.281,2.862-12.133,4.304-16-3.737c-1.404-2.919-3.39-4.81-4.324-14.901c0,0,0,0-3.596-0.854
							C350.353,206.522,350.65,194.431,364.14,195.269z"/>
					</g>
					<g>
						<path style="fill:#B55B52;" d="M365.641,216.417c-0.333,1.939-1.531,3.544-2.866,4.456c-2.009,1.372-3.791-0.237-3.884-2.54
							c-0.084-2.073,0.861-5.285,3.19-5.737C364.377,212.151,366.022,214.2,365.641,216.417"/>
					</g>
					<g>
						<path style="fill:#FFFFFF;" d="M359.734,221.341c0.208,0.843,1.061,1.357,1.904,1.149c0.843-0.208,1.357-1.061,1.149-1.904
							c-0.208-0.843-1.061-1.357-1.904-1.149S359.526,220.498,359.734,221.341z"/>
					</g>
				</g>
				<g>
					<g>
						<path style="fill:#407BFF;" d="M382.549,207.671c-0.008,0-0.016-0.001-0.025-0.001c-11.401-1.053-11.29-12.814-11.288-12.934
							c0.004-0.144,0.114-0.264,0.266-0.255c0.144,0.003,0.259,0.122,0.255,0.266c-0.009,0.465-0.1,11.396,10.816,12.404
							c0.143,0.013,0.248,0.14,0.235,0.284C382.796,207.57,382.682,207.671,382.549,207.671z"/>
					</g>
				</g>
				<g>
					<g>
						<path style="fill:#407BFF;" d="M371.498,198.13c-0.008,0-0.016-0.001-0.025-0.001c-1.365-0.132-8.205-0.877-8.799-2.557
							c-0.084-0.237-0.096-0.605,0.323-1.016c2.289-2.249,8.764,2.89,9.038,3.109c0.112,0.09,0.13,0.254,0.041,0.367
							c-0.091,0.113-0.253,0.131-0.367,0.041c-0.008-0.007-0.016-0.013-0.024-0.02C371.635,198.101,371.569,198.13,371.498,198.13z
							 M364.576,194.502c-0.493,0-0.911,0.127-1.216,0.426c-0.269,0.265-0.214,0.419-0.195,0.47
							c0.355,1.003,4.825,1.829,7.873,2.162C369.359,196.325,366.441,194.502,364.576,194.502z"/>
					</g>
				</g>
				<g>
					<g>
						<path style="fill:#407BFF;" d="M371.497,197.563c-0.139,0-0.255-0.11-0.261-0.25c0-0.011-0.001-0.021-0.001-0.032
							c-0.075-0.005-0.148-0.043-0.195-0.109c-0.794-1.118-4.709-6.775-3.829-8.325c0.124-0.218,0.398-0.472,0.978-0.421
							c3.199,0.256,3.555,8.516,3.568,8.867c0.005,0.144-0.107,0.265-0.25,0.271C371.504,197.563,371.5,197.563,371.497,197.563z
							 M368.05,188.94c-0.292,0-0.361,0.122-0.386,0.164c-0.525,0.925,1.777,4.845,3.521,7.367c-0.21-2.626-1.006-7.364-3.037-7.526
							C368.113,188.942,368.081,188.94,368.05,188.94z"/>
					</g>
				</g>
			</g>
			<g>
				<path style="fill:#407BFF;" d="M404.742,306.011c-6.698,11.768-46.749,10.14-48.956,7.62c-2.197-2.52,6.453-33.275,6.433-40.845
					v-0.029c-0.049-7.522-7.659-16.103-4.864-21.673c1.03-2.05,3.089-4.266,5.286-6.257c1.952-1.765,4.011-3.344,5.531-4.452
					c0.128-0.098,0.245-0.177,0.353-0.255l0.02-0.02c0.353-0.255,0.677-0.48,0.951-0.667c0.667-0.461,1.059-0.716,1.059-0.716
					s6.796-1.657,13.837-2.138c0.422-0.029,0.833-0.049,1.255-0.069c2.864-0.137,5.688-0.049,8.061,0.451
					c8.571,1.795,9.973,9.405,10.297,17.907C404.33,263.371,411.44,294.243,404.742,306.011z"/>
			</g>
			<g style="opacity:0.2;">
				<path style="fill:#FFFFFF;" d="M360.374,314.646l-0.498-0.033c0.495-7.311,9.91-47.879,10.006-48.288l0.486,0.113
					C370.273,266.846,360.867,307.374,360.374,314.646z"/>
			</g>
			<g style="opacity:0.2;">
				<path d="M385.648,236.51c-0.01,0.029-0.01,0.049-0.02,0.078c-0.402,1.569-5.639,5.776-10.454,5.609
					c-4.335-0.147-6.59-1.54-7.002-1.824c0.128-0.098,0.245-0.177,0.353-0.255l0.02-0.02c0.353-0.255,0.677-0.48,0.951-0.667
					c1.079,0.353,3.599,1.01,7.149,0.883c4.815-0.157,7.738-3.727,7.738-3.727s0,0,0.01-0.01
					C384.815,236.549,385.227,236.53,385.648,236.51z"/>
			</g>
			<g>
				<path style="fill:#B55B52;" d="M374.322,257.399c-0.706,10.091-8.277,14.034-12.102,15.387v-0.029
					c-0.049-7.522-7.659-16.103-4.864-21.673c1.03-2.05,3.089-4.266,5.286-6.257C367.839,245.807,374.93,248.739,374.322,257.399z"
					/>
			</g>
			<g>
				<path style="fill:#B55B52;" d="M370.367,255.163c-1.036,6.472-2.43,12.631-4.285,18.952c-0.94,3.155-1.983,6.299-3.411,9.561
					c-0.731,1.639-1.497,3.301-2.699,5.132c-0.623,0.924-1.3,1.89-2.447,3.003l-0.454,0.418l-0.537,0.436
					c-0.347,0.266-0.9,0.649-1.211,0.799c-0.361,0.195-0.728,0.381-1.096,0.556l-0.906,0.352c-0.316,0.124-0.593,0.212-0.849,0.284
					l-0.797,0.232c-0.505,0.129-0.98,0.232-1.47,0.344l-1.382,0.243l-1.329,0.183c-1.745,0.214-3.417,0.34-5.072,0.435
					c-3.301,0.164-6.52,0.162-9.722,0.089c-6.405-0.153-12.161,0.11-18.501-0.704l-0.445-6.971
					c6.144-0.706,12.355-2.155,18.42-2.908c3.032-0.388,6.044-0.811,8.948-1.323c1.447-0.252,2.87-0.531,4.2-0.855l0.971-0.252
					l0.902-0.268l0.789-0.27l0.315-0.133c0.117-0.043,0.208-0.085,0.249-0.119c0.058-0.035,0.117-0.067,0.177-0.095
					c-0.026-0.01-0.049-0.01-0.067,0c0.04-0.022-0.205,0.115-0.241,0.148c-0.031,0.017-0.061,0.039-0.087,0.062
					c-0.012,0.002-0.023,0.006-0.033,0.012c-0.04,0.011,0.188-0.31,0.394-0.704c0.441-0.826,0.973-2.015,1.429-3.26
					c0.927-2.522,1.739-5.349,2.494-8.2c1.486-5.71,2.76-11.761,3.96-17.569L370.367,255.163z"/>
			</g>
			<g>
				<g>
					<path style="fill:#B55B52;" d="M294.237,295.948l9.626-0.472h10.335l1.171-6.849c0,0-9.56-0.831-12.394,0
						c0,0-7.198,3.486-8.143,4.724C293.888,294.588,294.237,295.948,294.237,295.948z"/>
				</g>
			</g>
			<g>
				<path style="fill:#407BFF;" d="M369.561,239.568c0,0-0.368-2.118,0.858-2.792c1.226-0.674,6.393-4.538,8.437-4.782
					c2.044-0.244,4.117,4.671,5.529,4.591C385.797,236.505,373.054,240.644,369.561,239.568z"/>
			</g>
		</g>
		<g>
			<g>
				<g>
					<path d="M450.275,242.83c6.822,2.904,8.091,7.535,7.222,14.505c-2.309,18.517-8.166,63.001-11.94,69.715
						c-4.787,8.516-71.885,9.399-75.306,1.638c-3.42-7.761,7.221-73.229,12.965-79.419
						C387.993,244.119,430.738,234.513,450.275,242.83z"/>
				</g>
			</g>
			<g style="opacity:0.6;">
				<g>
					<path style="fill:#FFFFFF;" d="M450.275,242.83c6.822,2.904,8.091,7.535,7.222,14.505c-2.309,18.517-8.166,63.001-11.94,69.715
						c-4.787,8.516-71.885,9.399-75.306,1.638c-3.42-7.761,7.221-73.229,12.965-79.419
						C387.993,244.119,430.738,234.513,450.275,242.83z"/>
				</g>
			</g>
			<g style="opacity:0.5;">
				<path style="fill:#FFFFFF;" d="M376.605,327.497l-0.998-0.045c0.019-0.417,1.977-41.967,8.402-66.52
					c3.936-15.039,10.286-16.538,10.555-16.594l0.209,0.977c-0.059,0.014-6.042,1.525-9.797,15.871
					C378.578,285.638,376.625,327.082,376.605,327.497z"/>
			</g>
			<g>
				<path d="M370.889,327.474c0,0-3.793,0.594-13.321,2.207c-3.175,0.537-6.289,1.044-9.029,1.482
					c-5.461,0.871-9.473,5.581-9.473,11.111l0,0c0,6.215,5.038,11.253,11.253,11.253h77.241c7.809,0,14.805-5.139,16.819-12.684
					c0.929-3.478,1.462-7.862,1.231-13.369H370.889z"/>
			</g>
			<g style="opacity:0.5;">
				<path style="fill:#FFFFFF;" d="M370.889,327.474c0,0-3.793,0.594-13.321,2.207c-3.175,0.537-6.289,1.044-9.029,1.482
					c-5.461,0.871-9.473,5.581-9.473,11.111l0,0c0,6.215,5.038,11.253,11.253,11.253h77.241c7.809,0,14.805-5.139,16.819-12.684
					c0.929-3.478,1.462-7.862,1.231-13.369H370.889z"/>
			</g>
			<g>
				<g>
					<g>
						<g>
							<rect x="405.281" y="354.379" width="5.599" height="79.542"/>
						</g>
					</g>
					<g style="opacity:0.5;">
						<g>
							<rect x="405.281" y="354.379" style="fill:#FFFFFF;" width="5.599" height="79.542"/>
						</g>
					</g>
					<g>
						<g>
							<path d="M447.421,435.128h4.479v-2.27c0-8.278-6.735-15.013-15.013-15.013h-23.627v4.479h23.627
								c5.808,0,10.534,4.725,10.534,10.534V435.128z"/>
						</g>
					</g>
					<g style="opacity:0.6;">
						<g>
							<path style="fill:#FFFFFF;" d="M447.421,435.128h4.479v-2.27c0-8.278-6.735-15.013-15.013-15.013h-23.627v4.479h23.627
								c5.808,0,10.534,4.725,10.534,10.534V435.128z"/>
						</g>
					</g>
					<g>
						<g>
							
								<ellipse transform="matrix(0.7071 -0.7071 0.7071 0.7071 -179.0989 446.6963)" cx="449.661" cy="439.54" rx="7.64" ry="7.64"/>
						</g>
					</g>
					<g style="opacity:0.4;">
						<g>
							
								<ellipse transform="matrix(0.7071 -0.7071 0.7071 0.7071 -179.0989 446.6963)" style="fill:#FFFFFF;" cx="449.661" cy="439.54" rx="7.64" ry="7.64"/>
						</g>
					</g>
					<g style="opacity:0.5;">
						<g>
							<path style="fill:#FFFFFF;" d="M445.811,439.54c0,2.126,1.724,3.849,3.849,3.849c2.126,0,3.849-1.724,3.849-3.849
								c0-2.126-1.724-3.849-3.849-3.849C447.535,435.69,445.811,437.414,445.811,439.54z"/>
						</g>
					</g>
					<g>
						<g>
							<ellipse transform="matrix(0.987 -0.1606 0.1606 0.987 -65.2798 71.2262)" cx="408.081" cy="439.54" rx="7.64" ry="7.64"/>
						</g>
					</g>
					<g style="opacity:0.4;">
						<g>
							
								<ellipse transform="matrix(0.987 -0.1606 0.1606 0.987 -65.2798 71.2262)" style="fill:#FFFFFF;" cx="408.081" cy="439.54" rx="7.64" ry="7.64"/>
						</g>
					</g>
					<g style="opacity:0.5;">
						<g>
							<circle style="fill:#FFFFFF;" cx="408.081" cy="439.54" r="3.849"/>
						</g>
					</g>
					<g>
						<g>
							<path d="M364.838,435.128h4.479v-2.27c0-5.809,4.726-10.534,10.534-10.534h23.627v-4.479h-23.627
								c-8.278,0-15.013,6.735-15.013,15.013V435.128z"/>
						</g>
					</g>
					<g style="opacity:0.6;">
						<g>
							<path style="fill:#FFFFFF;" d="M364.838,435.128h4.479v-2.27c0-5.809,4.726-10.534,10.534-10.534h23.627v-4.479h-23.627
								c-8.278,0-15.013,6.735-15.013,15.013V435.128z"/>
						</g>
					</g>
					<g>
						<g>
							
								<ellipse transform="matrix(0.2305 -0.9731 0.9731 0.2305 -145.2396 695.4147)" cx="367.078" cy="439.54" rx="7.64" ry="7.64"/>
						</g>
					</g>
					<g style="opacity:0.4;">
						<g>
							
								<ellipse transform="matrix(0.2305 -0.9731 0.9731 0.2305 -145.2396 695.4147)" style="fill:#FFFFFF;" cx="367.078" cy="439.54" rx="7.64" ry="7.64"/>
						</g>
					</g>
					<g style="opacity:0.5;">
						<g>
							<circle style="fill:#FFFFFF;" cx="367.078" cy="439.54" r="3.849"/>
						</g>
					</g>
				</g>
			</g>
			<g>
				<g>
					<g>
						<rect x="402.9" y="413.046" width="10.361" height="15.186"/>
					</g>
				</g>
				<g style="opacity:0.6;">
					<g>
						<rect x="402.9" y="413.046" style="fill:#FFFFFF;" width="10.361" height="15.186"/>
					</g>
				</g>
			</g>
			<g>
				<g>
					<g>
						<rect x="402.9" y="353.527" width="10.361" height="15.186"/>
					</g>
				</g>
				<g style="opacity:0.6;">
					<g>
						<rect x="402.9" y="353.527" style="fill:#FFFFFF;" width="10.361" height="15.186"/>
					</g>
				</g>
			</g>
		</g>
		<g>
			<g>
				<g>
					<polygon style="fill:#B55B52;" points="357.928,417.835 359.975,428.233 351.504,428.233 346.703,419.03 					"/>
				</g>
			</g>
			<g>
				<path style="fill:#263238;" d="M359.975,426.487c0.311,2.519-8.08,0.434-8.937,1.746c-0.855,1.308-1.985,5.689-3.289,7.895
					c-1.303,2.206-8.684,9.316-8.684,9.316h15.745l2.379-3.432l0.78,3.432h4.35C362.318,445.444,360.669,428.263,359.975,426.487z"
					/>
			</g>
			<g>
				<polygon style="fill:#263238;" points="342.242,422.328 362.318,422.328 361.055,416.157 340.979,416.157 				"/>
			</g>
			<g style="opacity:0.3;">
				<polygon style="fill:#FFFFFF;" points="342.242,422.328 362.318,422.328 361.055,416.157 340.979,416.157 				"/>
			</g>
		</g>
	</g>
</g>
</svg>
